<svg id="_x33_0" enable-background="new 0 0 64 64" height="512" viewBox="0 0 64 64" width="512" xmlns="http://www.w3.org/2000/svg" xmlns:xlink="http://www.w3.org/1999/xlink"><linearGradient id="SVGID_1_" gradientUnits="userSpaceOnUse" x1="32" x2="32" y1="63" y2="1"><stop offset="0" stop-color="#9f2fff"/><stop offset="1" stop-color="#0bb1d3"/></linearGradient><path d="m35 40c0-.395-.081-.77-.22-1.115 1.275-.347 2.22-1.502 2.22-2.885 0-.771-.301-1.468-.78-2 .48-.532.78-1.229.78-2s-.301-1.468-.78-2c.48-.532.78-1.229.78-2 0-1.653-1.345-3-2.999-3h-5.001c-1.103 0-2-.897-2-2v-5c0-.192-.036-.374-.057-.56 1.443.983 3.183 1.56 5.057 1.56 4.963 0 9-4.038 9-9s-4.037-9-9-9-9 4.038-9 9c0 1.165.23 2.275.634 3.298-.515-.18-1.059-.298-1.634-.298-1.654 0-3 1.347-3 3v2.472c0 1.826-.973 3.544-2.539 4.484-1.479.888-2.594 2.278-3.138 3.913l-.023.07-12.3-1.025v17.086h31c1.654 0 3-1.346 3-3zm-3-37c3.859 0 7 3.14 7 7s-3.141 7-7 7-7-3.14-7-7 3.141-7 7-7zm-19 38h-10v-12.913l10 .833zm2-12.838.221-.66c.394-1.183 1.199-2.188 2.27-2.83 2.165-1.299 3.51-3.675 3.51-6.199v-2.472c0-.551.449-1 1-1 1.654 0 3 1.346 3 3v5c0 2.206 1.794 4 4 4h5.001c.55-.001.998.448.998.999s-.448 1-1 1h-7v2h7c.552 0 1 .449 1 1s-.448 1-1 1h-7v2h7c.552 0 1 .449 1 1s-.448 1-1 1h-7v2h5c.552 0 1 .448 1 1s-.448 1-1 1h-17zm17 16.838c-4.963 0-9 4.038-9 9s4.037 9 9 9 9-4.038 9-9-4.037-9-9-9zm-3.823 14.857c.499-1.661 2.045-2.857 3.823-2.857s3.324 1.196 3.823 2.857c-1.101.72-2.413 1.143-3.823 1.143s-2.722-.423-3.823-1.143zm1.823-6.857c0-1.103.897-2 2-2s2 .897 2 2-.897 2-2 2-2-.897-2-2zm7.403 5.445c-.544-1.141-1.427-2.078-2.522-2.684.69-.718 1.119-1.689 1.119-2.761 0-2.206-1.794-4-4-4s-4 1.794-4 4c0 1.072.429 2.043 1.119 2.762-1.095.606-1.977 1.542-2.522 2.684-.997-1.211-1.597-2.76-1.597-4.446 0-3.86 3.141-7 7-7s7 3.14 7 7c0 1.686-.6 3.235-1.597 4.445zm16.597-35.445c-4.963 0-9 4.038-9 9s4.037 9 9 9 9-4.038 9-9-4.037-9-9-9zm0 16c-3.859 0-7-3.14-7-7s3.141-7 7-7 7 3.14 7 7-3.141 7-7 7zm3-10h2v6h-10v-4h2v2h2v-6h2v6h2zm-24-18h-2v-2h2zm4 0h-2v-2h2zm-8 0h-2v-2h2zm13.576-1.66.848-1.812c4.229 1.978 7.476 4.538 10.06 7.958l.536-2.683 1.961.393-1.492 7.464-1.336-2.129c-2.57-4.097-5.931-7.018-10.577-9.191zm-27.09 1.177-2.682-.537.393-1.961 7.463 1.493-2.128 1.335c-4.099 2.571-7.02 5.932-9.19 10.576l-1.813-.847c1.977-4.228 4.536-7.474 7.957-10.059zm-4.638 34.952c2.569 4.098 5.931 7.018 10.576 9.191l-.848 1.812c-4.229-1.978-7.476-4.538-10.06-7.958l-.536 2.682-1.96-.392 1.492-7.464zm37.666 8.014 2.683.537-.393 1.961-7.463-1.493 2.128-1.335c4.099-2.571 7.02-5.932 9.19-10.576l1.813.847c-1.978 4.228-4.537 7.474-7.958 10.059z" fill="url(#SVGID_1_)"/></svg>